#!OML:ASF H:\Terrain\Patient Classification 1\Animal2\Wednesday\Animal2.ASF
:FULLY-SPECIFIED
:DEGREES
1065
root 13.262 17.8695 -22.3727 6.89218 -23.4171 -0.239784
lowerback 5.67069 -2.36745 0.380895
upperback -5.48069 -3.15273 0.19161
thorax -8.9791 -1.56408 0.412054
lowerneck 11.1187 5.83902 14.5784
upperneck -22.0525 6.4808 -21.1021
head -7.11901 3.97222 -10.3255
rclavicle -1.50284e-014 -1.08338e-014
rhumerus -39.3417 37.6751 -74.8733
rradius 107.555
rwrist -13.5405
rhand -21.4047 22.963
rfingers 7.12502
rthumb 4.98358 -6.95844
lclavicle -1.50284e-014 -1.08338e-014
lhumerus -39.4205 -28.2183 60.533
lradius 108.495
lwrist 37.6574
lhand -8.52862 4.28988
lfingers 7.12502
lthumb 17.4001 33.5311
rfemur -10.957 -4.98813 20.0076
rtibia 23.4264
rfoot -19.8056 7.76521
rtoes 25.021
lfemur -10.6045 -0.432042 -21.3842
ltibia 22.4995
lfoot -17.1317 7.76775
ltoes -26.2254
1066
root 13.269 17.8644 -22.3751 6.65987 -23.4822 -0.176982
lowerback 5.71378 -2.22096 0.284854
upperback -5.26607 -2.96341 0.171333
thorax -8.76582 -1.46632 0.414311
lowerneck 10.8347 5.90063 14.7285
upperneck -22.0777 6.50916 -21.3742
head -7.04428 3.98883 -10.4371
rclavicle -9.92215e-015 7.95139e-015
rhumerus -39.1991 37.7562 -74.6301
rradius 107.516
rwrist -12.5317
rhand -21.0423 24.151
rfingers 7.12502
rthumb 5.33353 -5.76184
lclavicle -9.92215e-015 7.95139e-015
lhumerus -39.1364 -30.3521 61.023
lradius 108.189
lwrist 36.0148
lhand -6.14022 3.49692
lfingers 7.12502
lthumb 19.6976 32.5189
rfemur -10.7203 -4.99498 19.8766
rtibia 23.394
rfoot -19.7628 7.94626
rtoes 24.9567
lfemur -10.4441 -0.402973 -21.454
ltibia 22.5894
lfoot -17.2279 7.54367
ltoes -25.1912
1067
root 13.2797 17.8608 -22.3828 6.5012 -23.2992 -0.322799
lowerback 5.71107 -2.14521 0.481228
upperback -4.92155 -2.84031 0.146019
thorax -8.40103 -1.41915 0.251873
lowerneck 10.4028 5.89642 14.9486
upperneck -22.2339 6.43354 -21.5935
head -7.00402 3.93698 -10.5425
rclavicle 3.19034e-014 1.46107e-014
rhumerus -38.6063 36.7121 -74.0715
rradius 107.442
rwrist -11.4647
rhand -21.4795 24.4833
rfingers 7.12502
rthumb 4.91136 -5.43982
lclavicle 3.19034e-014 1.46107e-014
lhumerus -38.4415 -31.6059 61.0378
lradius 107.784
lwrist 34.3893
lhand -4.28918 2.91479
lfingers 7.12502
lthumb 21.4762 31.7443
rfemur -10.4822 -5.0493 19.9936
rtibia 23.3615
rfoot -19.7059 7.94134
rtoes 25.4993
lfemur -10.3105 -0.383722 -21.302
ltibia 22.6927
lfoot -17.1851 7.44783
ltoes -25.8989
1068
root 13.289 17.8581 -22.3947 6.34935 -23.0845 -0.372189
lowerback 5.53071 -2.20662 0.616989
upperback -4.50926 -2.90647 0.158685
thorax -7.85677 -1.45939 0.178286
lowerneck 10.0874 5.9969 14.8583
upperneck -22.5151 6.45269 -21.7528
head -7.02255 3.9536 -10.5894
rclavicle -4.37016e-014 4.42296e-015
rhumerus -37.3204 35.0899 -73.2528
rradius 107.219
rwrist -11.0551
rhand -22.6627 24.0246
rfingers 7.12502
rthumb 3.76885 -5.92183
lclavicle -4.37016e-014 4.42296e-015
lhumerus -37.7059 -31.5066 60.6592
lradius 107.357
lwrist 33.2697
lhand -3.20392 2.3441
lfingers 7.12502
lthumb 22.5182 31.051
rfemur -10.291 -4.95166 20.0445
rtibia 23.3213
rfoot -19.6547 7.65253
rtoes 25.6465
lfemur -10.2586 -0.471817 -21.2442
ltibia 22.8255
lfoot -17.1401 7.42234
ltoes -26.4491
1069
root 13.2974 17.8574 -22.4104 6.20508 -22.92 -0.352882
lowerback 5.53171 -2.27826 0.640821
upperback -4.27072 -2.99591 0.195528
thorax -7.60082 -1.5031 0.207609
lowerneck 9.93521 6.09008 14.8045
upperneck -22.6142 6.49428 -21.9981
head -7.00335 3.99413 -10.6701
rclavicle 9.7222e-015 -9.54166e-015
rhumerus -36.1166 32.8022 -72.5213
rradius 106.959
rwrist -11.2509
rhand -24.734 23.0791
rfingers 7.12502
rthumb 1.76845 -6.89334
lclavicle 9.7222e-015 -9.54166e-015
lhumerus -37.004 -30.4874 60.0988
lradius 106.877
lwrist 33.0235
lhand -2.35339 2.31895
lfingers 7.12502
lthumb 23.3344 30.9247
rfemur -10.1288 -4.59624 20.0456
rtibia 23.3023
rfoot -19.7681 7.05529
rtoes 25.2494
lfemur -10.2632 -0.470366 -21.2477
ltibia 22.9495
lfoot -17.1536 7.24329
ltoes -26.2105
1070
root 13.3071 17.8554 -22.4242 6.15915 -22.7757 -0.315465
lowerback 5.83785 -2.29545 0.575007
upperback -4.3242 -3.02055 0.228527
thorax -7.83135 -1.50925 0.297372
lowerneck 10.6076 6.19456 14.1465
upperneck -23.4774 6.62649 -21.3355
head -7.44926 4.07218 -10.4295
rclavicle 2.91229e-014 8.29926e-015
rhumerus -35.3639 29.8818 -71.9558
rradius 106.896
rwrist -12.1016
rhand -27.7605 21.8653
rfingers 7.12502
rthumb -1.15458 -8.11137
lclavicle 2.91229e-014 8.29926e-015
lhumerus -36.5408 -28.9824 59.6101
lradius 106.34
lwrist 33.8158
lhand -1.24048 2.85291
lfingers 7.12502
lthumb 24.4017 31.3191
rfemur -10.1235 -4.42653 20.0202
rtibia 23.3296
rfoot -19.9089 6.65853
rtoes 24.9124
lfemur -10.3654 -0.372345 -21.2837
ltibia 23.0254
lfoot -17.2231 6.95313
ltoes -25.5596
1071
root 13.3167 17.8495 -22.4344 6.07703 -22.6177 -0.105893
lowerback 6.21364 -2.34236 0.430538
upperback -4.44987 -3.10145 0.153534
thorax -8.18299 -1.54117 0.330815
lowerneck 10.5645 6.27726 14.2523
upperneck -23.4707 6.77563 -21.2803
head -7.40614 4.12884 -10.426
rclavicle -8.1553e-014 -1.49585e-014
rhumerus -34.7144 26.3732 -71.5654
rradius 107.089
rwrist -13.7039
rhand -30.9622 20.1998
rfingers 7.12502
rthumb -4.24664 -9.73762
lclavicle -8.1553e-014 -1.49585e-014
lhumerus -36.3593 -26.9002 59.014
lradius 105.887
lwrist 35.3224
lhand -3.6197 3.40596
lfingers 7.12502
lthumb 22.1191 32.1607
rfemur -10.1767 -4.40561 19.8037
rtibia 23.3897
rfoot -20.016 6.52698
rtoes 25.2954
lfemur -10.472 -0.401701 -21.5131
ltibia 23.0611
lfoot -17.2561 6.85611
ltoes -25.6392
1072
root 13.3241 17.846 -22.4479 6.06307 -22.3918 -0.0531501
lowerback 6.6529 -2.29159 0.492072
upperback -4.57204 -3.0393 -0.021563
thorax -8.58604 -1.51765 0.127497
lowerneck 9.48368 6.17048 15.4219
upperneck -22.3946 6.72481 -21.8912
head -6.77724 4.03082 -10.6928
rclavicle 4.54759e-014 8.44835e-015
rhumerus -34.4703 21.9956 -71.3143
rradius 107.483
rwrist -15.4606
rhand -33.4536 18.2668
rfingers 7.12502
rthumb -6.65214 -11.6087
lclavicle 4.54759e-014 8.44835e-015
lhumerus -35.8967 -24.7376 58.2248
lradius 105.491
lwrist 37.2631
lhand -6.24712 4.04226
lfingers 7.12502
lthumb 19.5948 33.0748
rfemur -10.2492 -4.30409 19.7825
rtibia 23.4651
rfoot -20.1962 6.25476
rtoes 25.8154
lfemur -10.5829 -0.54921 -21.5671
ltibia 23.0598
lfoot -17.242 6.83841
ltoes -25.5295
1073
root 13.33 17.8445 -22.4653 6.00402 -22.1714 0.0631976
lowerback 7.15968 -2.05788 0.354783
upperback -4.5875 -2.75619 -0.246688
thorax -8.90381 -1.37664 -0.0526069
lowerneck 8.66138 6.06475 16.178
upperneck -21.9696 6.62719 -22.0456
head -6.46666 3.90734 -10.7965
rclavicle 2.00555e-014 3.97569e-016
rhumerus -34.3459 17.2605 -70.9155
rradius 108.071
rwrist -17.4209
rhand -35.73 16.3975
rfingers 7.12502
rthumb -8.84924 -13.397
lclavicle 2.00555e-014 3.97569e-016
lhumerus -34.768 -22.5488 57.3641
lradius 104.955
lwrist 39.4388
lhand -8.99609 4.62843
lfingers 7.12502
lthumb 16.9502 33.9088
rfemur -10.3104 -3.9817 19.7292
rtibia 23.5383
rfoot -20.3526 5.59838
rtoes 25.9587
lfemur -10.6471 -0.634578 -21.6786
ltibia 23.0149
lfoot -17.2176 6.69104
ltoes -24.8048
1074
root 13.3382 17.8428 -22.4761 5.89377 -21.9377 0.304255
lowerback 7.38819 -2.48154 0.239487
upperback -4.87495 -3.32682 -0.0598474
thorax -9.33941 -1.63847 0.313928
lowerneck 10.0261 6.2238 15.0992
upperneck -22.3822 6.84998 -21.6933
head -6.87746 4.12246 -10.597
rclavicle -2.70999e-015 -2.5842e-015
rhumerus -34.0031 15.4149 -70.822
rradius 108.796
rwrist -19.7007
rhand -37.0357 16.504
rfingers 7.12502
rthumb -10.1091 -13.2332
lclavicle -2.70999e-015 -2.5842e-015
lhumerus -35.8677 -18.5587 56.9059
lradius 104.833
lwrist 41.8471
lhand -12.1797 5.44913
lfingers 7.12502
lthumb 13.8839 34.9657
rfemur -10.3068 -3.68663 19.5202
rtibia 23.5903
rfoot -20.4334 4.94182
rtoes 25.9861
lfemur -10.6502 -0.782706 -21.9386
ltibia 22.9488
lfoot -17.1746 6.63054
ltoes -24.7574
1075
root 13.3444 17.8444 -22.4811 5.94307 -21.7077 0.345034
lowerback 7.51865 -2.62644 0.209845
upperback -5.04621 -3.51978 0.030013
thorax -9.59763 -1.72511 0.46799
lowerneck 10.4686 6.14636 14.8833
upperneck -22.2304 6.76521 -21.7152
head -6.94104 4.1195 -10.5828
rclavicle -3.87529e-014 -2.03754e-015
rhumerus -33.9307 13.4839 -70.6711
rradius 109.551
rwrist -21.1578
rhand -37.5983 16.7185
rfingers 7.12502
rthumb -10.6518 -12.9915
lclavicle -3.87529e-014 -2.03754e-015
lhumerus -36.1323 -15.2412 56.3525
lradius 104.909
lwrist 44.8981
lhand -15.2662 6.5573
lfingers 7.12502
lthumb 10.908 36.254
rfemur -10.3779 -3.50441 19.5082
rtibia 23.6317
rfoot -20.5326 4.50568
rtoes 26.0845
lfemur -10.7334 -0.884171 -21.9873
ltibia 22.8699
lfoot -17.0969 6.72245
ltoes -25.9351
1076
root 13.3446 17.8466 -22.4881 5.98687 -21.6327 0.356541
lowerback 7.63901 -2.64745 0.0738488
upperback -5.15153 -3.56139 0.0785344
thorax -9.77326 -1.73279 0.611846
lowerneck 10.532 6.10467 15.0702
upperneck -22.0696 6.76706 -21.7428
head -6.89206 4.11204 -10.6169
rclavicle -6.98487e-014 -2.14687e-014
rhumerus -34.0684 12.2823 -70.5089
rradius 110.141
rwrist -21.2619
rhand -37.2028 16.9471
rfingers 7.12502
rthumb -10.2703 -12.7822
lclavicle -6.98487e-014 -2.14687e-014
lhumerus -36.1821 -12.4427 55.8033
lradius 105.172
lwrist 47.6569
lhand -17.0508 7.53011
lfingers 7.12502
lthumb 9.18628 37.31
rfemur -10.4668 -3.2579 19.5305
rtibia 23.6459
rfoot -20.6246 4.24695
rtoes 26.3893
lfemur -10.794 -0.739168 -21.9955
ltibia 22.8047
lfoot -16.9872 6.7821
ltoes -27.5191
